<svg width="35" height="47" viewBox="0 0 35 47" fill="none" xmlns="http://www.w3.org/2000/svg">
<path d="M10.8573 17.3898C10.8834 17.3898 10.9094 17.3897 10.9355 17.3897C11.0072 17.3896 11.079 17.3896 11.1507 17.3897C11.2287 17.3897 11.3067 17.3896 11.3847 17.3895C11.5214 17.3894 11.6582 17.3894 11.7949 17.3894C11.9982 17.3895 12.2015 17.3894 12.4049 17.3893C12.7891 17.3891 13.1733 17.389 13.5576 17.389C13.8543 17.389 14.151 17.3889 14.4476 17.3889C14.533 17.3888 14.6184 17.3888 14.7037 17.3888C14.725 17.3888 14.7462 17.3888 14.7681 17.3888C15.365 17.3887 15.962 17.3886 16.559 17.3886C16.5928 17.3886 16.5928 17.3886 16.6272 17.3886C16.7413 17.3886 16.8554 17.3886 16.9695 17.3886C17.0035 17.3886 17.0035 17.3886 17.0382 17.3886C17.084 17.3886 17.1299 17.3886 17.1757 17.3886C17.8888 17.3886 18.602 17.3885 19.3152 17.3882C20.1162 17.3879 20.9172 17.3877 21.7182 17.3877C21.8036 17.3877 21.8889 17.3877 21.9743 17.3877C21.9953 17.3877 22.0164 17.3877 22.038 17.3877C22.3766 17.3877 22.7151 17.3876 23.0537 17.3874C23.3938 17.3872 23.734 17.3872 24.0741 17.3873C24.2763 17.3874 24.4784 17.3874 24.6806 17.3872C24.8155 17.387 24.9505 17.3871 25.0855 17.3872C25.1625 17.3873 25.2394 17.3873 25.3163 17.3871C25.3864 17.387 25.4564 17.387 25.5264 17.3872C25.5634 17.3873 25.6004 17.3871 25.6373 17.387C25.911 17.3882 25.911 17.3882 26.0218 17.4342C26.3894 18.0525 25.9862 19.5236 25.8487 20.1973C25.8312 20.2769 25.8087 20.3535 25.7829 20.4305C25.7656 20.4877 25.7524 20.5456 25.739 20.604C25.4884 21.6598 25.035 22.6933 24.4582 23.5897C24.4338 23.6297 24.4094 23.6697 24.3849 23.7097C24.1796 24.0383 23.9445 24.3469 23.7106 24.6526C23.6996 24.6672 23.6885 24.6817 23.6771 24.6967C23.6137 24.7791 23.5475 24.8555 23.4761 24.93C23.4412 24.9677 23.4088 25.0068 23.3765 25.047C23.2955 25.1471 23.2084 25.2401 23.1206 25.3334C23.1048 25.3503 23.0891 25.3672 23.0728 25.3847C22.9775 25.4862 22.8798 25.583 22.7774 25.6763C22.7553 25.6969 22.7332 25.7175 22.7112 25.738C22.5715 25.8674 22.4289 25.9908 22.2813 26.1097C22.2488 26.1361 22.2164 26.1628 22.1841 26.1896C21.4418 26.8056 20.6007 27.2711 19.7283 27.6378C19.7111 27.645 19.6938 27.6523 19.6761 27.6598C19.2756 27.8272 18.8617 27.9425 18.442 28.0405C18.3817 28.0546 18.3215 28.0692 18.2612 28.0839C18.0012 28.1458 17.7416 28.1864 17.4765 28.214C17.4234 28.2198 17.3705 28.2259 17.3175 28.2323C17.087 28.2597 16.86 28.2699 16.6283 28.2697C16.5918 28.2699 16.5554 28.27 16.5189 28.2702C16.4413 28.2705 16.3637 28.2707 16.286 28.2708C16.1629 28.2709 16.0398 28.2713 15.9167 28.2718C15.6332 28.2729 15.3498 28.2737 15.0663 28.2743C14.8061 28.275 14.5459 28.2757 14.2857 28.2768C14.1637 28.2773 14.0416 28.2775 13.9196 28.2777C13.8434 28.2778 13.7671 28.2781 13.6908 28.2784C13.6559 28.2786 13.6209 28.2786 13.586 28.2786C13.1638 28.2784 12.7874 28.3249 12.3989 28.5141C12.3777 28.5241 12.3564 28.5342 12.3345 28.5445C11.7724 28.8241 11.3486 29.3602 11.1285 29.9748C11.0994 30.0714 11.0744 30.1687 11.0503 30.2669C11.0449 30.2875 11.0394 30.3082 11.0338 30.3294C10.9411 30.6943 10.9468 31.0623 10.9471 31.4373C10.9472 31.5175 10.947 31.5977 10.9468 31.6778C10.9466 31.8181 10.9464 31.9584 10.9464 32.0986C10.9464 32.3072 10.9462 32.5157 10.9459 32.7243C10.9454 33.0752 10.9451 33.4261 10.9449 33.777C10.9446 34.1243 10.9444 34.4716 10.944 34.8189C10.9439 34.8513 10.9439 34.8513 10.9439 34.8844C10.9438 34.9941 10.9436 35.1039 10.9435 35.2137C10.9426 35.9907 10.9419 36.7677 10.9413 37.5448C10.9407 38.2995 10.94 39.0542 10.9393 39.809C10.9392 39.8439 10.9392 39.8439 10.9392 39.8795C10.9389 40.1133 10.9387 40.347 10.9385 40.5807C10.938 41.0569 10.9375 41.533 10.937 42.0092C10.937 42.0311 10.9369 42.0529 10.9369 42.0755C10.9355 43.5367 10.9342 44.9979 10.9331 46.4591C10.9202 46.4584 10.9074 46.4578 10.8941 46.4572C10.8353 46.4544 10.7764 46.4517 10.7175 46.4489C10.6973 46.4479 10.6771 46.447 10.6563 46.446C10.528 46.44 10.3997 46.4354 10.2713 46.4321C9.7794 46.4185 9.23328 46.4 8.76356 46.2295C8.70114 46.2144 8.63831 46.2018 8.57544 46.1891C8.42838 46.1583 8.28256 46.1264 8.13812 46.0835C8.12568 46.0798 8.11325 46.0761 8.10044 46.0723C7.87178 46.0035 7.6469 45.9232 7.42228 45.8409C7.4021 45.8335 7.4021 45.8335 7.38151 45.826C7.22817 45.7698 7.07614 45.7115 6.92632 45.6453C6.9065 45.6367 6.88667 45.6282 6.86624 45.6194C6.72193 45.5561 6.58059 45.4868 6.43964 45.4155C6.39645 45.3938 6.35311 45.3724 6.30974 45.3511C5.68706 45.0434 5.11335 44.6386 4.56137 44.2055C4.5476 44.1948 4.53382 44.184 4.51963 44.173C4.25511 43.9663 4.00908 43.7414 3.76906 43.5033C3.74155 43.4762 3.71373 43.4495 3.68589 43.4228C3.53433 43.2764 3.38919 43.1233 3.24452 42.9692C3.22922 42.9529 3.22922 42.9529 3.2136 42.9363C3.10833 42.8244 3.00459 42.712 2.90795 42.5913C2.8731 42.5479 2.83645 42.5063 2.79988 42.4645C2.71 42.3583 2.62939 42.2457 2.54867 42.1316C2.46734 42.0166 2.38397 41.9037 2.29847 41.7923C1.62084 40.9005 1.15054 39.8375 0.750088 38.7803C0.738578 38.75 0.738578 38.75 0.726835 38.7191C0.590245 38.3576 0.488198 37.9894 0.398277 37.6118C0.393266 37.591 0.388256 37.5702 0.383093 37.5488C0.0730468 36.2556 -0.0025186 34.9651 6.32888e-05 33.6345C0.000338147 33.4888 0.0002973 33.3431 0.000256544 33.1974C0.000194909 32.9369 0.000418342 32.6763 0.000805294 32.4157C0.00117706 32.1653 0.00131492 31.9149 0.00120612 31.6644C0.00108667 31.3887 0.00109317 31.1129 0.00131348 30.8372C0.00133707 30.8076 0.00136031 30.778 0.00138387 30.7484C0.00139566 30.7338 0.0014075 30.7193 0.00141966 30.7043C0.00149419 30.6037 0.00148755 30.5031 0.00145067 30.4026C0.00116839 29.3679 0.0011685 29.3679 0.024998 28.9097C0.0257661 28.8949 0.0265341 28.8801 0.0273254 28.8648C0.0514387 28.4171 0.097682 27.9674 0.184656 27.5285C0.199613 27.452 0.20944 27.3756 0.21863 27.298C0.244882 27.0971 0.291874 26.9018 0.33842 26.7053C0.345487 26.6753 0.345487 26.6753 0.352696 26.6447C0.526872 25.9076 0.748933 25.1956 1.05458 24.5079C1.08261 24.4446 1.11022 24.3812 1.13778 24.3178C1.24066 24.0828 1.35034 23.8528 1.46837 23.6262C1.48013 23.6037 1.49189 23.5811 1.504 23.5578C1.63341 23.3123 1.77323 23.0745 1.91995 22.8404C1.94239 22.8045 1.96474 22.7686 1.98708 22.7327C2.26472 22.2878 2.57606 21.8616 2.91608 21.4689C2.99595 21.3766 3.07323 21.2819 3.14802 21.1849C3.18737 21.1349 3.22588 21.0876 3.2714 21.0441C3.2843 21.0441 3.2972 21.0441 3.31049 21.0441C3.31445 21.0328 3.3184 21.0215 3.32248 21.0099C3.36065 20.9404 3.4147 20.8922 3.47051 20.8393C3.49377 20.8169 3.51701 20.7944 3.54022 20.772C3.55131 20.7613 3.5624 20.7506 3.57382 20.7395C3.60863 20.7053 3.64175 20.6697 3.67452 20.6332C3.74563 20.5556 3.82522 20.4898 3.9044 20.4218C3.94595 20.3848 3.98316 20.3478 4.02022 20.3059C4.09176 20.227 4.1723 20.1611 4.25351 20.0941C4.33176 20.0296 4.40861 19.9636 4.48483 19.8964C4.60618 19.7894 4.7279 19.69 4.86027 19.599C4.90947 19.5651 4.95717 19.5298 5.0048 19.4934C5.33747 19.2436 5.68754 19.023 6.04417 18.8149C6.0704 18.7995 6.09661 18.7842 6.12279 18.7688C6.45271 18.5745 6.79436 18.4068 7.14132 18.2506C7.16002 18.2421 7.16002 18.2421 7.17911 18.2335C7.35935 18.152 7.5415 18.0828 7.72767 18.0185C7.76572 18.0047 7.80374 17.9908 7.84173 17.9769C8.39594 17.775 8.96071 17.6129 9.54107 17.5246C9.58503 17.5176 9.62877 17.5097 9.67256 17.5015C9.91 17.4578 10.1474 17.4358 10.3877 17.4185C10.4287 17.4148 10.4695 17.4093 10.5101 17.4027C10.6255 17.3873 10.7411 17.3896 10.8573 17.3898Z" fill="white"/>
<path d="M11.0953 0.00821661C11.1356 0.0081758 11.1759 0.00812593 11.2162 0.00806787C11.3269 0.00793481 11.4376 0.00793092 11.5483 0.00794846C11.6687 0.00794492 11.7891 0.00782157 11.9096 0.00771391C12.1206 0.00754215 12.3317 0.00744791 12.5428 0.00740663C12.7692 0.00736217 12.9956 0.00727314 13.222 0.00713031C13.2363 0.00712132 13.2506 0.00711234 13.2654 0.00710308C13.3237 0.00706639 13.382 0.00702946 13.4403 0.00699222C14.1462 0.00654208 14.8521 0.00631464 15.5581 0.00612677C15.7869 0.00606553 16.0158 0.00599521 16.2446 0.00591879C16.2608 0.0059134 16.2769 0.00590801 16.2936 0.00590246C16.3589 0.00588063 16.4242 0.00585875 16.4896 0.00583682C17.607 0.00546208 18.7243 0.00514115 19.8417 0.00498633C19.9295 0.00497415 20.0172 0.00496168 20.1049 0.00494924C20.131 0.00494554 20.131 0.00494554 20.1576 0.00494177C20.3339 0.00491679 20.5102 0.00489156 20.6865 0.00486597C20.7218 0.00486086 20.7572 0.00485577 20.7925 0.00485071C21.9285 0.00468805 23.0645 0.00422067 24.2005 0.00354289C25.017 0.00305591 25.8335 0.00260614 26.65 0.00245772C26.6668 0.00245465 26.6836 0.00245158 26.7009 0.00244842C27.0692 0.00238198 27.4376 0.00233918 27.8059 0.00231848C27.9541 0.00230982 28.1023 0.00229824 28.2505 0.00228589C28.2667 0.00228462 28.283 0.00228335 28.2997 0.00228205C28.8225 0.00223995 29.3453 0.00194264 29.8682 0.00151498C30.3945 0.001086 30.9208 0.000920583 31.4472 0.00112015C31.5198 0.00114766 31.5925 0.00117224 31.6651 0.00119507C31.6865 0.00120195 31.6865 0.00120195 31.7083 0.00120897C31.9342 0.00127406 32.1601 0.0010581 32.386 0.000726094C32.6079 0.000405738 32.8298 0.000388104 33.0517 0.000674935C33.1705 0.000819798 33.2893 0.00082957 33.4081 0.000475452C33.516 0.000156331 33.6239 0.000216694 33.7318 0.000588344C33.7708 0.000654428 33.8097 0.000578615 33.8487 0.000348555C33.9013 5.75331e-05 33.9539 0.000276678 34.0066 0.000627084C34.0217 0.000420146 34.0369 0.000213209 34.0525 0C34.1535 0.00142643 34.2105 0.0268688 34.2887 0.094482C34.3194 0.13328 34.3194 0.13328 34.3412 0.17273C34.3485 0.185534 34.3558 0.198337 34.3634 0.211528C34.4265 0.34859 34.4538 0.458283 34.4521 0.609616C34.4521 0.626537 34.4522 0.643459 34.4522 0.660893C34.4522 0.715536 34.4517 0.770158 34.4511 0.824798C34.451 0.843606 34.4509 0.862414 34.4507 0.881792C34.4458 1.62942 34.3557 2.37707 34.1714 3.09921C34.1658 3.12178 34.1602 3.14435 34.1545 3.1676C33.9899 3.8306 33.7683 4.49303 33.4692 5.10112C33.4464 5.14791 33.424 5.19497 33.4017 5.24207C33.2015 5.66154 32.9855 6.07681 32.7106 6.44607C32.6737 6.49617 32.6389 6.5478 32.6041 6.59951C32.4722 6.79369 32.3375 6.98279 32.1912 7.16486C32.1433 7.22459 32.0969 7.28551 32.0507 7.34678C31.892 7.55445 31.7175 7.74648 31.5398 7.93546C31.5093 7.96783 31.479 8.00031 31.4487 8.0328C31.3433 8.14542 31.2362 8.25454 31.1224 8.35749C31.1005 8.37779 31.0787 8.39811 31.0568 8.41846C30.1314 9.27428 29.0291 9.98452 27.8583 10.3815C27.8456 10.3859 27.8329 10.3902 27.8198 10.3947C27.655 10.451 27.4896 10.5037 27.3228 10.5527C27.2738 10.5641 27.2738 10.5641 27.2524 10.5902C27.2274 10.5928 27.2024 10.5953 27.1767 10.598C27.1073 10.6054 27.0439 10.6192 26.977 10.64C26.6708 10.7313 26.3545 10.7813 26.0394 10.8236C26.0157 10.8268 25.9919 10.8301 25.9675 10.8334C25.5537 10.8866 25.1425 10.9094 24.7259 10.9088C24.6761 10.9089 24.6263 10.909 24.5764 10.9092C24.4691 10.9094 24.3617 10.9095 24.2544 10.9095C24.0948 10.9095 23.9351 10.9097 23.7755 10.9099C23.5068 10.9104 23.238 10.9106 22.9693 10.9108C22.7034 10.911 22.4375 10.9112 22.1715 10.9116C22.1467 10.9116 22.1467 10.9116 22.1213 10.9116C22.037 10.9118 21.9527 10.9119 21.8684 10.912C21.2725 10.9128 20.6767 10.9135 20.0808 10.9141C20.0448 10.9141 20.0089 10.9141 19.9729 10.9142C19.9551 10.9142 19.9373 10.9142 19.9189 10.9142C19.8288 10.9143 19.7386 10.9144 19.6484 10.9145C19.6306 10.9145 19.6127 10.9145 19.5943 10.9145C19.1785 10.9149 18.7628 10.9154 18.347 10.9158C18.3203 10.9159 18.3203 10.9159 18.293 10.9159C17.886 10.9163 17.4789 10.9168 17.0719 10.9173C17.0548 10.9174 17.0377 10.9174 17.02 10.9174C16.8661 10.9176 16.7122 10.9178 16.5583 10.918C16.1748 10.9185 15.7913 10.919 15.4078 10.9193C15.1407 10.9195 14.8737 10.9198 14.6067 10.9201C14.4481 10.9203 14.2896 10.9204 14.131 10.9205C14.0126 10.9206 13.8941 10.9207 13.7757 10.9209C13.7278 10.921 13.68 10.921 13.6321 10.921C13.1949 10.9143 13.1949 10.9143 12.7671 10.9971C12.7411 11.0052 12.7411 11.0052 12.7145 11.0135C12.0659 11.2262 11.5597 11.6881 11.2431 12.3235C11.1285 12.562 11.0585 12.8077 11.0068 13.0693C11.0036 13.0854 11.0003 13.1014 10.9969 13.118C10.9293 13.4802 10.9462 13.8625 10.9411 14.2301C10.9401 14.3002 10.9389 14.3704 10.9378 14.4406C10.9375 14.4622 10.9373 14.4839 10.937 14.5062C10.9365 14.5359 10.9365 14.5359 10.936 14.5662C10.9358 14.5837 10.9355 14.6012 10.9353 14.6192C10.9323 14.6591 10.9323 14.6591 10.9128 14.6799C10.8549 14.687 10.7973 14.6929 10.7392 14.698C10.7025 14.7015 10.6657 14.7049 10.629 14.7083C10.6097 14.71 10.5903 14.7118 10.5704 14.7136C10.3018 14.7382 10.0332 14.7628 9.76572 14.7986C9.74687 14.8011 9.72802 14.8036 9.70861 14.8061C9.62993 14.81 9.62993 14.81 9.56416 14.8469C9.51081 14.8533 9.4576 14.8588 9.40414 14.8638C9.18779 14.8864 8.97585 14.9265 8.76281 14.9721C8.74477 14.9759 8.72674 14.9798 8.70815 14.9837C8.44338 15.041 8.18302 15.1118 7.92261 15.1883C7.82436 15.2171 7.72579 15.2439 7.62676 15.2694C7.52595 15.2959 7.4324 15.3277 7.33602 15.3685C7.30735 15.3779 7.27858 15.387 7.24975 15.3959C7.1274 15.4347 7.00702 15.479 6.88649 15.5237C6.86477 15.5317 6.84305 15.5397 6.82068 15.5479C6.69124 15.5958 6.56359 15.6467 6.43695 15.7024C6.42025 15.7097 6.40355 15.7169 6.38634 15.7244C5.97397 15.9046 5.56027 16.0876 5.16489 16.3076C5.12493 16.3298 5.08477 16.3515 5.0446 16.3732C4.34031 16.7576 3.65544 17.2228 3.03611 17.7473C3.00834 17.7706 3.00834 17.7706 2.98 17.7945C2.9333 17.8341 2.88691 17.874 2.84066 17.9142C2.82396 17.9286 2.80725 17.9431 2.79004 17.958C2.59061 18.1312 2.3944 18.3074 2.20499 18.493C2.16367 18.5333 2.12192 18.5728 2.07963 18.6119C1.91029 18.7694 1.74719 18.9326 1.58978 19.1036C1.5373 19.1598 1.48462 19.2158 1.43174 19.2716C1.3298 19.3793 1.22846 19.4865 1.13559 19.6034C1.07405 19.6797 1.00949 19.7532 0.945557 19.8272C0.905395 19.8719 0.905395 19.8719 0.886158 19.9174C0.873258 19.9174 0.860359 19.9174 0.847068 19.9174C0.842634 19.9286 0.838199 19.9398 0.833631 19.9513C0.799985 20.0162 0.755754 20.0692 0.710253 20.1247C0.485582 20.4038 0.269079 20.7011 0.0871777 21.014C0.0799468 21.024 0.0727159 21.0339 0.0652659 21.0441C0.0523662 21.0441 0.0394664 21.0441 0.0261758 21.0441C0.00833486 20.8259 0.00384333 20.6101 0.00414823 20.3913C0.00412567 20.3556 0.00409513 20.32 0.00405638 20.2843C0.00397532 20.1872 0.00401469 20.09 0.00407546 19.9928C0.00411989 19.8877 0.00405157 19.7826 0.00399792 19.6774C0.00391119 19.4717 0.00392927 19.266 0.00398599 19.0603C0.00403024 18.8929 0.00403585 18.7254 0.00401462 18.558C0.00401163 18.5341 0.00400817 18.5102 0.00400508 18.4856C0.00399883 18.4371 0.00399361 18.3886 0.00398719 18.34C0.00393149 17.8853 0.00399541 17.4305 0.00410052 16.9757C0.00418767 16.5866 0.00417286 16.1975 0.00408262 15.8083C0.00397767 15.3556 0.00393693 14.9028 0.00399673 14.4501C0.00400296 14.4016 0.00400856 14.3532 0.00401462 14.3048C0.00401764 14.2809 0.00402106 14.2571 0.00402417 14.2326C0.00404095 14.0657 0.00401191 13.8989 0.00396571 13.7321C0.00391049 13.5282 0.00392686 13.3243 0.00403013 13.1204C0.00408099 13.0166 0.00410281 12.9128 0.00403729 12.809C0.0033762 11.6656 0.00337673 11.6656 0.0518287 11.1562C0.0543355 11.1288 0.0568424 11.1015 0.0594253 11.0733C0.0974061 10.667 0.142639 10.2595 0.221626 9.85985C0.225604 9.83917 0.229582 9.81849 0.23368 9.79718C0.526811 8.27398 1.04999 6.81505 1.85909 5.51629C1.88095 5.48117 1.90262 5.44591 1.92426 5.41063C2.19326 4.97439 2.49095 4.55161 2.82173 4.16648C2.85721 4.12515 2.89181 4.08319 2.92617 4.0408C3.07293 3.86169 3.2245 3.689 3.38182 3.52045C3.39551 3.50574 3.4092 3.49103 3.4233 3.47587C3.50083 3.39334 3.58035 3.31467 3.66325 3.23835C3.72157 3.18407 3.77752 3.12719 3.8338 3.07052C3.9314 2.97302 4.03107 2.8801 4.13552 2.79095C4.18349 2.74948 4.23022 2.70679 4.27679 2.66355C4.52003 2.43884 4.78673 2.24628 5.05542 2.05823C5.1058 2.02274 5.15564 1.9864 5.20561 1.95027C5.47047 1.76214 5.74903 1.59567 6.02651 1.42992C6.04109 1.42118 6.05568 1.41245 6.07071 1.40345C6.67227 1.04637 7.32951 0.744264 7.99285 0.547109C8.04179 0.532012 8.09016 0.515542 8.13859 0.498683C8.37296 0.41779 8.6092 0.354574 8.84954 0.297927C8.86428 0.294449 8.87901 0.290972 8.89419 0.287388C9.41699 0.164634 9.41699 0.164634 9.67777 0.133606C9.77894 0.121745 9.77894 0.121745 9.87688 0.094482C9.91706 0.0887601 9.95734 0.083883 9.99766 0.0794844C10.0219 0.0768216 10.0461 0.0741587 10.0711 0.0714151C10.0965 0.0686984 10.1219 0.0659817 10.1481 0.0631827C10.1727 0.0604661 10.1973 0.0577494 10.2227 0.0549504C10.2964 0.0469442 10.37 0.0390165 10.4437 0.0318835C10.46 0.0301588 10.4763 0.0284342 10.4931 0.0266573C10.6939 0.00748382 10.8939 0.00803826 11.0953 0.00821661Z" fill="white"/>
</svg>
